<?xml version="1.0" encoding="UTF-8"?> <svg xmlns="http://www.w3.org/2000/svg" width="42" height="50" viewBox="0 0 42 50" fill="none"><path d="M37.5 0H4.16679C1.86653 0.00267029 0.00267029 1.86653 0 4.16679V44.1666C0 45.5475 1.11923 46.6667 2.50015 46.6667V49.1665C2.50015 49.6269 2.87323 50 3.33328 50H38.3335C38.7936 50 39.1666 49.6269 39.1666 49.1665V46.6667C40.5472 46.6667 41.6668 45.5475 41.6668 44.1666V4.16679C41.6637 1.86653 39.8003 0.00267029 37.5 0ZM4.16679 1.66664H37.5C38.8805 1.66664 40.0002 2.78587 40.0002 4.16679V10.0002H1.66664V4.16679C1.66664 2.78587 2.78587 1.66664 4.16679 1.66664ZM37.5 48.3334H4.16679V46.6667H37.5V48.3334ZM39.1666 45.0001H2.50015C2.03972 45.0001 1.66664 44.627 1.66664 44.1666V11.6665H40.0002V44.1666C40.0002 44.627 39.6271 45.0001 39.1666 45.0001Z" fill="url(#paint0_linear)"></path><path d="M4.16679 8.3332H14.1666C14.6271 8.3332 15.0001 7.96013 15.0001 7.50007V4.16679C15.0001 3.70636 14.6271 3.33328 14.1666 3.33328H4.16679C3.70636 3.33328 3.33328 3.70636 3.33328 4.16679V7.50007C3.33328 7.96013 3.70636 8.3332 4.16679 8.3332ZM4.99992 4.99992H13.3335V6.66656H4.99992V4.99992Z" fill="url(#paint1_linear)"></path><path d="M19.1666 8.3332C20.5475 8.3332 21.6667 7.21397 21.6667 5.83343C21.6667 4.45251 20.5475 3.33328 19.1666 3.33328C17.786 3.33328 16.6668 4.45251 16.6668 5.83343C16.6668 7.21397 17.786 8.3332 19.1666 8.3332ZM19.1666 4.99992C19.627 4.99992 20.0001 5.373 20.0001 5.83343C20.0001 6.29349 19.627 6.66656 19.1666 6.66656C18.7065 6.66656 18.3334 6.29349 18.3334 5.83343C18.3334 5.373 18.7065 4.99992 19.1666 4.99992Z" fill="url(#paint2_linear)"></path><path d="M25.8331 8.3332C27.214 8.3332 28.3333 7.21397 28.3333 5.83343C28.3333 4.45251 27.214 3.33328 25.8331 3.33328C24.4526 3.33328 23.3333 4.45251 23.3333 5.83343C23.3333 7.21397 24.4526 8.3332 25.8331 8.3332ZM25.8331 4.99992C26.2936 4.99992 26.6666 5.373 26.6666 5.83343C26.6666 6.29349 26.2936 6.66656 25.8331 6.66656C25.3731 6.66656 25 6.29349 25 5.83343C25 5.373 25.3731 4.99992 25.8331 4.99992Z" fill="url(#paint3_linear)"></path><path d="M30.8334 6.66656H32.5001C32.9601 6.66656 33.3332 6.29349 33.3332 5.83343C33.3332 5.373 32.9601 4.99992 32.5001 4.99992H30.8334C30.373 4.99992 29.9999 5.373 29.9999 5.83343C29.9999 6.29349 30.373 6.66656 30.8334 6.66656Z" fill="url(#paint4_linear)"></path><path d="M35.8333 6.66656H37.5C37.9604 6.66656 38.3335 6.29349 38.3335 5.83343C38.3335 5.373 37.9604 4.99992 37.5 4.99992H35.8333C35.3729 4.99992 34.9998 5.373 34.9998 5.83343C34.9998 6.29349 35.3729 6.66656 35.8333 6.66656Z" fill="url(#paint5_linear)"></path><path d="M20.8332 15.0001C13.4697 15.0001 7.50007 20.9694 7.50007 28.3333C7.50007 35.6972 13.4697 41.6668 20.8332 41.6668C28.1971 41.6668 34.1667 35.6972 34.1667 28.3333C34.1579 20.9732 28.1937 15.0089 20.8332 15.0001ZM20.8332 40.0001C14.3902 40.0001 9.16671 34.7767 9.16671 28.3333C9.16671 21.8899 14.3902 16.6668 20.8332 16.6668C27.2766 16.6668 32.5001 21.8899 32.5001 28.3333C32.4932 34.7736 27.2739 39.9933 20.8332 40.0001Z" fill="url(#paint6_linear)"></path><path d="M20.8332 17.4999C14.8563 17.4942 10.0059 22.3347 9.99981 28.3115C9.99866 29.7279 10.2752 31.131 10.8142 32.4409C10.8192 32.4577 10.8142 32.4749 10.8207 32.4917C10.8276 32.5085 10.8432 32.5241 10.8516 32.5436C13.1725 38.0531 19.5205 40.638 25.0301 38.3171C28.1131 37.0182 30.4222 34.367 31.2858 31.1352C31.2904 31.1214 31.2938 31.1073 31.2965 31.0932C32.8441 25.3376 29.4326 19.4172 23.6766 17.8699C22.7497 17.6208 21.7933 17.4961 20.8332 17.4999ZM20.8332 19.1665C25.8838 19.1547 29.9881 23.2395 29.9999 28.2898C30.0014 28.9718 29.927 29.6516 29.7775 30.3165C29.343 30.4603 28.9165 30.6274 28.4999 30.8166C27.4189 31.3778 26.218 31.6692 25 31.6666C23.9627 31.6944 22.9381 31.4346 22.039 30.9166C20.9076 30.2868 19.6281 29.9705 18.3334 29.9999C16.2166 30.0861 14.1235 30.479 12.12 31.1664C10.5491 26.3599 13.1721 21.1902 17.9786 19.6197C18.9003 19.3184 19.8639 19.1654 20.8332 19.1665ZM20.8332 37.5C17.4739 37.4977 14.3844 35.659 12.78 32.7076C14.5721 32.0976 16.4421 31.747 18.3334 31.6666C19.3706 31.6391 20.3952 31.8985 21.294 32.4165C22.4258 33.0463 23.7053 33.3629 25 33.3332C26.3996 33.3408 27.7816 33.0215 29.0359 32.4009C27.4913 35.5198 24.3137 37.4954 20.8332 37.5Z" fill="url(#paint7_linear)"></path><defs><linearGradient id="paint0_linear" x1="20.8334" y1="0" x2="20.8334" y2="50" gradientUnits="userSpaceOnUse"><stop stop-color="#3B9EFF"></stop><stop offset="1" stop-color="#F687FF"></stop></linearGradient><linearGradient id="paint1_linear" x1="20.8334" y1="0" x2="20.8334" y2="50" gradientUnits="userSpaceOnUse"><stop stop-color="#3B9EFF"></stop><stop offset="1" stop-color="#F687FF"></stop></linearGradient><linearGradient id="paint2_linear" x1="20.8334" y1="0" x2="20.8334" y2="50" gradientUnits="userSpaceOnUse"><stop stop-color="#3B9EFF"></stop><stop offset="1" stop-color="#F687FF"></stop></linearGradient><linearGradient id="paint3_linear" x1="20.8334" y1="0" x2="20.8334" y2="50" gradientUnits="userSpaceOnUse"><stop stop-color="#3B9EFF"></stop><stop offset="1" stop-color="#F687FF"></stop></linearGradient><linearGradient id="paint4_linear" x1="20.8334" y1="0" x2="20.8334" y2="50" gradientUnits="userSpaceOnUse"><stop stop-color="#3B9EFF"></stop><stop offset="1" stop-color="#F687FF"></stop></linearGradient><linearGradient id="paint5_linear" x1="20.8334" y1="0" x2="20.8334" y2="50" gradientUnits="userSpaceOnUse"><stop stop-color="#3B9EFF"></stop><stop offset="1" stop-color="#F687FF"></stop></linearGradient><linearGradient id="paint6_linear" x1="20.8334" y1="0" x2="20.8334" y2="50" gradientUnits="userSpaceOnUse"><stop stop-color="#3B9EFF"></stop><stop offset="1" stop-color="#F687FF"></stop></linearGradient><linearGradient id="paint7_linear" x1="20.8334" y1="0" x2="20.8334" y2="50" gradientUnits="userSpaceOnUse"><stop stop-color="#3B9EFF"></stop><stop offset="1" stop-color="#F687FF"></stop></linearGradient></defs></svg> 