<?xml version="1.0" encoding="UTF-8"?> <svg xmlns="http://www.w3.org/2000/svg" width="48" height="48" viewBox="0 0 48 48" fill="none"><path d="M43.058 25.1509H41.6847V23.7776H43.058V25.1509ZM40.7692 25.1509H39.3959V23.7776H40.7692V25.1509Z" fill="url(#paint0_linear)"></path><path d="M40.5403 16.4955L39.581 15.5362L38.61 16.5072L41.2567 19.1542L43.9032 16.5072L42.9322 15.5362L41.9136 16.5547V5.77806H34.4904V7.15135H40.5403V16.4955Z" fill="url(#paint1_linear)"></path><path d="M33.3657 40.7875L32.3947 39.8164L29.748 42.4632L32.3947 45.1099L33.3657 44.1386L32.3764 43.1498H34.5431V41.7765H32.3764L33.3657 40.7875Z" fill="url(#paint2_linear)"></path><path d="M24.6702 30.6584L30.2973 25.0313H31.7006L30.7113 26.0201L31.6826 26.9914L34.329 24.3447L31.6826 21.6979L30.7113 22.6692L31.7006 23.658H30.2973L24.6702 18.0309V12.3501C27.3905 12.0348 29.5537 9.87103 29.8693 7.15134H32.6593V5.77805H29.8693C29.5277 2.83263 27.0191 0.538086 23.9836 0.538086C20.716 0.538086 18.0575 3.19655 18.0575 6.46469C18.0575 9.50024 20.3515 12.0082 23.2969 12.3501V18.0309L17.6704 23.658H16.2671L17.2559 22.6692L16.2851 21.6979L13.6381 24.3447L16.2851 26.9914L17.2559 26.0201L16.2671 25.0313H17.6704L23.2969 30.6584V37.5134H19.034V47.4131H28.9337V43.5939H27.5604V46.0398H20.4073V38.8867H27.5604V41.7628H28.9337V37.5134H24.6702V30.6584ZM19.4308 6.46469C19.4308 3.95415 21.473 1.91138 23.9836 1.91138C26.4947 1.91138 28.5369 3.95415 28.5369 6.46469C28.5369 8.97524 26.4947 11.0177 23.9836 11.0177C21.473 11.0177 19.4308 8.97524 19.4308 6.46469ZM23.9836 19.2867L29.0419 24.3447L23.9836 29.4027L18.9259 24.3447L23.9836 19.2867Z" fill="url(#paint3_linear)"></path><path d="M45.471 19.9684H36.9826L35.2074 21.7437V26.9456L36.9826 28.7214H40.5403V41.7768H36.3741V43.1501H41.9136V28.7209H45.471L47.2465 26.9453V21.7437L45.471 19.9684ZM45.8732 26.3765L44.9019 27.3476H37.5517L36.5807 26.3765V22.3127L37.5517 21.3417H44.9019L45.8732 22.3127V26.3765Z" fill="url(#paint4_linear)"></path><path d="M14.602 40.7875L15.5908 41.7766H7.42742V36.1404H6.05413V43.1499H15.5908L14.602 44.1387L15.5731 45.11L18.2198 42.4632L15.5731 39.8165L14.602 40.7875Z" fill="url(#paint5_linear)"></path><path d="M6.05414 34.3093H7.42743V28.7208H10.9845L12.7604 26.9453V21.7437L10.9845 19.9678H2.49674L0.721191 21.7437V26.9453L2.49674 28.7208H6.05414V34.3093ZM2.09448 26.3765V22.3127L3.06523 21.3417H10.4161L11.3871 22.3127V26.3765L10.4161 27.3476H3.06523L2.09448 26.3765Z" fill="url(#paint6_linear)"></path><defs><linearGradient id="paint0_linear" x1="23.9839" y1="0.538086" x2="23.9839" y2="47.4131" gradientUnits="userSpaceOnUse"><stop stop-color="#3B9EFF"></stop><stop offset="1" stop-color="#F687FF"></stop></linearGradient><linearGradient id="paint1_linear" x1="23.9839" y1="0.538086" x2="23.9839" y2="47.4131" gradientUnits="userSpaceOnUse"><stop stop-color="#3B9EFF"></stop><stop offset="1" stop-color="#F687FF"></stop></linearGradient><linearGradient id="paint2_linear" x1="23.9839" y1="0.538086" x2="23.9839" y2="47.4131" gradientUnits="userSpaceOnUse"><stop stop-color="#3B9EFF"></stop><stop offset="1" stop-color="#F687FF"></stop></linearGradient><linearGradient id="paint3_linear" x1="23.9839" y1="0.538086" x2="23.9839" y2="47.4131" gradientUnits="userSpaceOnUse"><stop stop-color="#3B9EFF"></stop><stop offset="1" stop-color="#F687FF"></stop></linearGradient><linearGradient id="paint4_linear" x1="23.9839" y1="0.538086" x2="23.9839" y2="47.4131" gradientUnits="userSpaceOnUse"><stop stop-color="#3B9EFF"></stop><stop offset="1" stop-color="#F687FF"></stop></linearGradient><linearGradient id="paint5_linear" x1="23.9839" y1="0.538086" x2="23.9839" y2="47.4131" gradientUnits="userSpaceOnUse"><stop stop-color="#3B9EFF"></stop><stop offset="1" stop-color="#F687FF"></stop></linearGradient><linearGradient id="paint6_linear" x1="23.9839" y1="0.538086" x2="23.9839" y2="47.4131" gradientUnits="userSpaceOnUse"><stop stop-color="#3B9EFF"></stop><stop offset="1" stop-color="#F687FF"></stop></linearGradient></defs></svg> 