<?xml version="1.0" encoding="UTF-8"?> <svg xmlns="http://www.w3.org/2000/svg" width="50" height="50" viewBox="0 0 50 50" fill="none"><path d="M26.6487 44.6858C26.2455 44.719 25.9457 45.0726 25.9792 45.4758C26.0124 45.879 26.3664 46.1781 26.7693 46.1457C31.1031 45.7878 35.1685 44.1307 38.525 41.354C38.6837 41.2224 38.7798 41.0302 38.7897 40.8238C38.7993 40.6178 38.7215 40.4171 38.5757 40.2714L9.73091 11.4525C9.58519 11.3068 9.38416 11.2305 9.17892 11.2389C8.97331 11.2488 8.78105 11.3446 8.64944 11.5033C5.50995 15.2916 3.78075 20.0909 3.78075 25.0168C3.78075 30.3719 5.78384 35.484 9.42154 39.4123C13.0386 43.3178 17.9428 45.7093 23.2307 46.1457C23.2513 46.1472 23.2716 46.148 23.2918 46.148C23.6691 46.148 23.9895 45.8584 24.0211 45.4758C24.0543 45.0726 23.7545 44.719 23.3513 44.6858C18.4292 44.2795 13.8638 42.0533 10.4961 38.4167C7.11021 34.7603 5.24559 30.0019 5.24559 25.0172C5.24559 20.7009 6.67152 16.4891 9.2762 13.0688L17.1764 20.9622L15.9149 22.9798C15.9103 22.9866 15.9058 22.9943 15.9016 23.0015C14.1598 26.0155 14.0053 29.546 15.4774 32.6878C16.9407 35.8094 19.8154 38.0169 23.167 38.5933C23.209 38.6006 23.251 38.604 23.2922 38.604C23.642 38.604 23.9517 38.3522 24.0131 37.9956C24.0818 37.5969 23.814 37.2181 23.4154 37.1498C20.5353 36.6547 18.0637 34.7542 16.8037 32.066C15.5395 29.3682 15.6708 26.3363 17.1635 23.7454L18.24 22.0246L31.1283 34.9018C29.8595 36.0813 28.3024 36.8546 26.585 37.1498C26.186 37.2181 25.9186 37.5969 25.9872 37.9956C26.0483 38.3522 26.358 38.604 26.7082 38.604C26.7494 38.604 26.791 38.6006 26.833 38.5933C28.8521 38.2462 30.6801 37.3318 32.1648 35.9372L36.9591 40.7273C33.9622 43.0104 30.4146 44.3749 26.6487 44.6858Z" fill="url(#paint0_linear)"></path><path d="M43.2495 7.94489C38.9172 3.32339 33.0608 0.537516 26.7593 0.0992071C26.3557 0.0732671 26.0063 0.375773 25.9781 0.778986C25.9499 1.18258 26.2543 1.53239 26.6579 1.56062C32.5893 1.97299 38.102 4.59597 42.181 8.94663C46.2784 13.3179 48.5352 19.0247 48.5352 25.0172C48.5352 31.2977 46.0873 37.2021 41.642 41.6435C37.1967 46.0846 31.2866 48.5306 25 48.5306C18.7134 48.5306 12.8033 46.0846 8.358 41.6435C3.91273 37.2021 1.46484 31.2977 1.46484 25.0172C1.46484 19.0251 3.72162 13.3179 7.81898 8.94663C11.8977 4.59597 17.4103 1.97299 23.3418 1.56062C23.7453 1.53277 24.0498 1.18296 24.0215 0.779368C23.9937 0.375773 23.6427 0.0736486 23.2403 0.0992071C16.9388 0.537516 11.0825 3.32377 6.75049 7.94489C2.39754 12.5885 0 18.6512 0 25.0172C0 31.6891 2.60048 37.962 7.32231 42.6796C12.0445 47.3973 18.3224 49.9954 25 49.9954C31.6776 49.9954 37.9555 47.3973 42.6773 42.6796C47.3995 37.962 50 31.6891 50 25.0172C50 18.6512 47.6025 12.5881 43.2495 7.94489Z" fill="url(#paint1_linear)"></path><path d="M40.7429 38.847C40.754 38.847 40.765 38.847 40.7761 38.8462C40.9817 38.8371 41.1736 38.7417 41.3056 38.5838C44.4744 34.7859 46.2193 29.9679 46.2193 25.0168C46.2193 19.3539 44.0121 14.0297 40.004 10.0251C35.9963 6.02077 30.6679 3.8155 25 3.8155C20.0455 3.8155 15.2233 5.55919 11.422 8.72501C11.2637 8.85662 11.1683 9.04888 11.1592 9.25487C11.1496 9.46048 11.2274 9.66037 11.3732 9.8061L40.2252 38.633C40.363 38.7703 40.5495 38.847 40.7429 38.847ZM25 5.28034C35.8925 5.28034 44.7544 14.1343 44.7544 25.0172C44.7544 29.3572 43.3136 33.5877 40.6822 37.0186L35.0342 31.3755C35.9276 28.5588 35.6018 25.6031 34.0985 23.0015L26.8658 10.4847C26.4763 9.81106 25.779 9.4086 25 9.4086C24.2211 9.4086 23.5237 9.81106 23.1343 10.4847L19.8368 16.1915L12.9879 9.34871C16.4219 6.71962 20.6562 5.28034 25 5.28034ZM20.9095 17.2631L24.403 11.2179C24.5823 10.907 24.8802 10.8734 25 10.8734C25.1198 10.8734 25.4177 10.907 25.597 11.2179L32.8301 23.7347C33.9905 25.7424 34.3361 27.9938 33.841 30.1834L20.9095 17.2631Z" fill="url(#paint2_linear)"></path><defs><linearGradient id="paint0_linear" x1="25" y1="0.0976562" x2="25" y2="49.9954" gradientUnits="userSpaceOnUse"><stop stop-color="#3B9EFF"></stop><stop offset="1" stop-color="#F687FF"></stop></linearGradient><linearGradient id="paint1_linear" x1="25" y1="0.0976562" x2="25" y2="49.9954" gradientUnits="userSpaceOnUse"><stop stop-color="#3B9EFF"></stop><stop offset="1" stop-color="#F687FF"></stop></linearGradient><linearGradient id="paint2_linear" x1="25" y1="0.0976562" x2="25" y2="49.9954" gradientUnits="userSpaceOnUse"><stop stop-color="#3B9EFF"></stop><stop offset="1" stop-color="#F687FF"></stop></linearGradient></defs></svg> 