<svg version="1.1" id="Слой_1" xmlns="http://www.w3.org/2000/svg" xmlns:xlink="http://www.w3.org/1999/xlink" x="0" y="0" width="923.1" height="289.7" xml:space="preserve"><style>.st6{opacity:.5;fill:#fff;enable-background:new}</style><path d="M39.1 15.5c.4-2.6 2.7-4.4 5.2-4.2l874 50.1c3 .2 5.2 3 4.6 6l-35.6 175.3c-.5 2.3-2.4 3.9-4.7 4L5.2 280.8c-3.1.1-5.6-2.6-5.1-5.7l39-259.6z" fill="#fff"/><defs><path id="SVGID_1_" transform="rotate(-14.999 45.91 257.83)" d="M13.3 233.6h65.2v48.5H13.3z"/></defs><clipPath id="SVGID_2_"><use xlink:href="#SVGID_1_" overflow="visible"/></clipPath><g clip-path="url(#SVGID_2_)"><radialGradient id="SVGID_3_" cx="222.782" cy="585.409" r="1" gradientTransform="matrix(-.4043 -1.334 -1.334 .4043 926.859 308.95)" gradientUnits="userSpaceOnUse"><stop offset="0"/><stop offset=".189" stop-color="#030303"/><stop offset=".322" stop-color="#0c0c0c"/><stop offset=".438" stop-color="#1c1c1c"/><stop offset=".545" stop-color="#323232"/><stop offset=".645" stop-color="#4e4e4e"/><stop offset=".74" stop-color="#717171"/><stop offset=".831" stop-color="#9b9b9b"/><stop offset=".917" stop-color="#cacaca"/><stop offset="1" stop-color="#fff"/></radialGradient><path d="M54.8 247.3c.4-.4 1.3-.2 2 .4.6.7.7 1.6.3 2-.4.4-1.3.2-2-.4-.7-.8-.8-1.6-.3-2z" fill="url(#SVGID_3_)"/><linearGradient id="SVGID_4_" gradientUnits="userSpaceOnUse" x1="50.412" y1="63.939" x2="54.202" y2="61.059" gradientTransform="matrix(1 0 0 -1 0 314)"><stop offset="0" stop-color="#ded9d6"/><stop offset=".063" stop-color="#cfcac9"/><stop offset=".183" stop-color="#a8a4a7"/><stop offset=".264" stop-color="#8b878d"/><stop offset=".522" stop-color="#f3f4f4"/><stop offset=".584" stop-color="#e5e5e6"/><stop offset=".703" stop-color="#c0bec0"/><stop offset=".865" stop-color="#858085"/><stop offset=".876" stop-color="#807b80"/><stop offset="1" stop-color="#a7a9ac"/></linearGradient><path d="M49.9 255.7l7.1-6.8s-.4-1.4-1.5-1.4l-7.7 7.1 2.1 1.1z" fill="url(#SVGID_4_)"/><linearGradient id="SVGID_5_" gradientUnits="userSpaceOnUse" x1="29.416" y1="53.73" x2="56.335" y2="37.676" gradientTransform="matrix(1 0 0 -1 0 314)"><stop offset=".184" stop-color="#29abe2"/><stop offset=".755" stop-color="#1b1464"/></linearGradient><path d="M34.6 261.2l-11.1 13.1 8.4 5.8 11.2-10.4c6.6 2.2 12.1-2.8 12.1-2.8s.1-5.7-5.6-12.1c-5.7-6.2-11.8-5.2-11.8-5.2s-5.3 5.3-3.2 11.6z" fill="url(#SVGID_5_)"/><linearGradient id="SVGID_6_" gradientUnits="userSpaceOnUse" x1="18.83" y1="28.431" x2="36.672" y2="45.638" gradientTransform="matrix(1 0 0 -1 0 314)"><stop offset=".184" stop-color="#29abe2"/><stop offset=".755" stop-color="#1b1464"/></linearGradient><path d="M18.3 272.3c2.3-2.5 7.4-1.5 11.4 2.3 4 3.7 5.3 8.7 3 11.2s-7.5 1.5-11.4-2.3c-4-3.6-5.3-8.7-3-11.2z" fill="url(#SVGID_6_)"/><path class="st6" d="M20 272.2h.6c.2 0 .4 0 .7.1.2 0 .5.1.9.2.1.1.3.1.4.1.1.1.3.1.5.2.1.1.3.1.6.2.1.1.4.2.5.3.5.3.9.5 1.2.7.4.2.7.5 1 .8.3.3.7.5 1 .9l.9.9c.3.3.5.6.7 1 .1.2.2.3.3.4.1.2.2.3.2.5.2.3.3.6.4.8.1.3.2.5.3.7.1.4.2.6.2.6s-.1-.2-.3-.5c-.1-.2-.2-.4-.3-.5-.2-.3-.4-.5-.6-.8-.2-.3-.3-.5-.6-.8-.3-.2-.4-.5-.7-.8-.3-.2-.6-.6-.9-.9-.3-.2-.7-.5-.9-.8-.4-.2-.7-.5-.9-.8-.4-.2-.6-.5-1-.7-.1-.1-.4-.2-.5-.3-.1-.1-.4-.2-.5-.3-.3-.1-.6-.4-1-.5-.2-.1-.6-.3-.8-.3-.2-.1-.5-.2-.6-.3-.5 0-.8-.1-.8-.1zM42.4 260.3c.9-.4 1.9-.2 2.2.4.3.7-.3 1.4-1.3 1.8-.9.4-1.9.2-2.2-.4-.2-.6.4-1.4 1.3-1.8zM41.6 255.4c.6-.3 1.2-.1 1.3.3.2.4-.2.9-.7 1.1-.6.3-1.2.1-1.3-.3-.2-.3.2-.8.7-1.1z"/></g><g><defs><path id="SVGID_7_" d="M62.2 0h47.1v66H62.2z"/></defs><clipPath id="SVGID_8_"><use xlink:href="#SVGID_7_" overflow="visible"/></clipPath><g clip-path="url(#SVGID_8_)"><radialGradient id="SVGID_9_" cx="40.37" cy="343.91" r="1.001" gradientTransform="matrix(1.3939 0 0 -1.3939 35.564 524.577)" gradientUnits="userSpaceOnUse"><stop offset="0"/><stop offset=".189" stop-color="#030303"/><stop offset=".322" stop-color="#0c0c0c"/><stop offset=".438" stop-color="#1c1c1c"/><stop offset=".545" stop-color="#323232"/><stop offset=".645" stop-color="#4e4e4e"/><stop offset=".74" stop-color="#717171"/><stop offset=".831" stop-color="#9b9b9b"/><stop offset=".917" stop-color="#cacaca"/><stop offset="1" stop-color="#fff"/></radialGradient><path d="M93.3 44.5c.3.6-.2 1.3-1 1.7-.8.4-1.7.3-2-.3-.3-.6.2-1.3 1-1.7.9-.4 1.8-.3 2 .3z" fill="url(#SVGID_9_)"/><linearGradient id="SVGID_10_" gradientUnits="userSpaceOnUse" x1="91.822" y1="274.49" x2="87.968" y2="271.699" gradientTransform="matrix(1 0 0 -1 0 314)"><stop offset="0" stop-color="#ded9d6"/><stop offset=".063" stop-color="#cfcac9"/><stop offset=".183" stop-color="#a8a4a7"/><stop offset=".264" stop-color="#8b878d"/><stop offset=".522" stop-color="#f3f4f4"/><stop offset=".584" stop-color="#e5e5e6"/><stop offset=".703" stop-color="#c0bec0"/><stop offset=".865" stop-color="#858085"/><stop offset=".876" stop-color="#807b80"/><stop offset="1" stop-color="#a7a9ac"/></linearGradient><path d="M86.7 37.4l4.4 8.7s1.4 0 1.7-1l-4.6-9.5-1.5 1.8z" fill="url(#SVGID_10_)"/><linearGradient id="SVGID_11_" gradientUnits="userSpaceOnUse" x1="88.173" y1="297.509" x2="65.003" y2="276.403" gradientTransform="matrix(1 0 0 -1 0 314)"><stop offset=".184" stop-color="#8cc63f"/><stop offset=".755" stop-color="#006837"/></linearGradient><path d="M85.8 21.1L76.5 6.7l-8 6.4 6.7 13.8c-4 5.7-.8 12.4-.8 12.4s5.5 1.8 13.1-1.9c7.7-3.7 8.5-9.7 8.5-9.7s-3.5-6.7-10.2-6.6z" fill="url(#SVGID_11_)"/><linearGradient id="SVGID_12_" gradientUnits="userSpaceOnUse" x1="67.088" y1="315.037" x2="78.379" y2="292.972" gradientTransform="matrix(1 0 0 -1 0 314)"><stop offset=".184" stop-color="#8cc63f"/><stop offset=".755" stop-color="#006837"/></linearGradient><path d="M79.9 2.3c1.7 2.9-.8 7.5-5.5 10.2-4.7 2.7-9.9 2.5-11.6-.4-1.8-2.9.7-7.5 5.4-10.2 4.8-2.7 10-2.5 11.7.4z" fill="url(#SVGID_12_)"/><path class="st6" d="M79.5 4.1s-.1.2-.2.6c-.1.1-.2.3-.3.6-.1.2-.3.5-.4.8-.1.1-.2.3-.3.4-.1.1-.2.3-.3.4-.1.1-.2.3-.4.4l-.4.4c-.3.3-.6.6-1 .9-.3.3-.7.5-1 .8-.4.2-.7.5-1.1.7-.4.2-.7.4-1.1.5-.4.2-.8.3-1.1.4-.2.1-.3.1-.5.2-.2 0-.3.1-.5.1-.3.1-.6.1-.9.2H68.7s.2-.1.6-.2c.2-.1.4-.1.6-.2.3-.1.5-.2.8-.3s.6-.2.9-.4c.3-.2.7-.3 1-.5.3-.2.7-.4 1.1-.6.3-.2.7-.4 1-.6s.7-.5 1-.7c.3-.3.6-.5.9-.8l.4-.4.4-.4c.4-.2.6-.4.8-.6.2-.2.4-.5.5-.7.2-.2.3-.4.4-.5.2-.3.4-.5.4-.5zM84.3 29c.1 1-.4 1.9-1 2-.7.1-1.3-.7-1.4-1.8-.1-1 .4-1.9 1-2 .7-.1 1.3.7 1.4 1.8zM89.3 29.6c.1.6-.2 1.1-.6 1.2-.4 0-.8-.4-.8-1-.1-.6.2-1.1.6-1.2.4-.1.7.4.8 1z"/></g></g><g><defs><path id="SVGID_13_" transform="rotate(-15.64 825.653 238.113)" d="M802.2 205.1h47.1v66h-47.1z"/></defs><clipPath id="SVGID_14_"><use xlink:href="#SVGID_13_" overflow="visible"/></clipPath><g clip-path="url(#SVGID_14_)"><radialGradient id="SVGID_15_" cx="409.563" cy="399.386" r="1" gradientTransform="scale(-1.394 1.394) rotate(15.641 770.256 -3342.149)" gradientUnits="userSpaceOnUse"><stop offset="0"/><stop offset=".189" stop-color="#030303"/><stop offset=".322" stop-color="#0c0c0c"/><stop offset=".438" stop-color="#1c1c1c"/><stop offset=".545" stop-color="#323232"/><stop offset=".645" stop-color="#4e4e4e"/><stop offset=".74" stop-color="#717171"/><stop offset=".831" stop-color="#9b9b9b"/><stop offset=".917" stop-color="#cacaca"/><stop offset="1" stop-color="#fff"/></radialGradient><path d="M815.4 229.1c-.5-.5-.2-1.3.5-1.9.7-.6 1.6-.7 2-.3.5.5.2 1.3-.5 1.9-.8.7-1.7.8-2 .3z" fill="url(#SVGID_15_)"/><linearGradient id="SVGID_16_" gradientUnits="userSpaceOnUse" x1="818.088" y1="80.494" x2="821.048" y2="84.22" gradientTransform="matrix(1 0 0 -1 0 314)"><stop offset="0" stop-color="#ded9d6"/><stop offset=".063" stop-color="#cfcac9"/><stop offset=".183" stop-color="#a8a4a7"/><stop offset=".264" stop-color="#8b878d"/><stop offset=".522" stop-color="#f3f4f4"/><stop offset=".584" stop-color="#e5e5e6"/><stop offset=".703" stop-color="#c0bec0"/><stop offset=".865" stop-color="#858085"/><stop offset=".876" stop-color="#807b80"/><stop offset="1" stop-color="#a7a9ac"/></linearGradient><path d="M823.6 234.1L817 227s-1.3.4-1.4 1.4l7 7.9 1-2.2z" fill="url(#SVGID_16_)"/><linearGradient id="SVGID_17_" gradientUnits="userSpaceOnUse" x1="827.807" y1="59.311" x2="844.429" y2="85.881" gradientTransform="matrix(1 0 0 -1 0 314)"><stop offset=".184" stop-color="#8cc63f"/><stop offset=".755" stop-color="#006837"/></linearGradient><path d="M828.9 249.6l12.8 11.4 6-8.3-10.2-11.5c2.3-6.6-2.6-12.2-2.6-12.2s-5.8-.3-12.1 5.4c-6.4 5.6-5.6 11.6-5.6 11.6s5.3 5.5 11.7 3.6z" fill="url(#SVGID_17_)"/><linearGradient id="SVGID_18_" gradientUnits="userSpaceOnUse" x1="852.837" y1="48.116" x2="836.015" y2="66.32" gradientTransform="matrix(1 0 0 -1 0 314)"><stop offset=".184" stop-color="#8cc63f"/><stop offset=".755" stop-color="#006837"/></linearGradient><path d="M839.6 266.1c-2.4-2.3-1.3-7.4 2.5-11.3 3.8-3.9 8.9-5.1 11.3-2.7 2.5 2.3 1.3 7.4-2.5 11.3-3.8 3.8-8.8 5-11.3 2.7z" fill="url(#SVGID_18_)"/><path class="st6" d="M839.5 264.3v-.6c.1-.1.1-.3.1-.7 0-.2.2-.6.2-.9.1-.1.1-.3.2-.5.1-.1.1-.3.2-.5.1-.1.1-.3.3-.5.1-.1.2-.4.3-.5.2-.4.4-.7.7-1.1.2-.4.5-.7.7-1 .3-.3.5-.7.9-1 .3-.3.6-.6.9-.8.3-.3.7-.5 1-.7.2-.2.3-.2.4-.3.2-.1.3-.2.5-.2.3-.2.6-.3.8-.4.3-.1.5-.1.7-.2.4-.1.6-.2.6-.2s-.2.2-.5.4c-.2.2-.4.2-.5.4-.3.2-.4.3-.7.5s-.5.4-.8.6c-.2.3-.6.5-.8.8-.2.3-.6.6-.9.9-.2.3-.6.6-.8.8-.2.3-.5.7-.8.9-.2.4-.4.6-.7 1-.1.1-.2.4-.3.5-.1.1-.2.4-.3.5-.3.3-.5.5-.6.8-.1.2-.3.6-.3.8-.1.2-.2.5-.3.6 0 .3-.2.6-.2.6zM828.2 241.6c-.4-.9-.1-1.9.4-2.2.6-.3 1.4.3 1.8 1.4.4.9.1 1.9-.4 2.2-.6.2-1.4-.4-1.8-1.4zM823.2 242.4c-.3-.6-.1-1.1.3-1.3.4-.1.9.2 1 .7.3.6.1 1.1-.3 1.3-.3.2-.7-.2-1-.7z"/></g></g></svg>