<svg width="34" height="47" viewBox="0 0 34 47" fill="none" xmlns="http://www.w3.org/2000/svg">
<path d="M31.1 44.5001C31.4 45.1001 30.9 45.8001 30.1 46.2001C29.3 46.6001 28.4 46.5001 28.1 45.9001C27.8 45.3001 28.3 44.6001 29.1 44.2001C30 43.8001 30.9 43.9001 31.1 44.5001Z" fill="url(#paint0_radial)"/>
<path d="M24.5 37.4001L28.9 46.1001C28.9 46.1001 30.3 46.1001 30.6 45.1001L26 35.6001L24.5 37.4001Z" fill="url(#paint1_linear)"/>
<path d="M23.6 21.1001L14.3 6.70007L6.3 13.1001L13 26.9001C9 32.6001 12.2 39.3001 12.2 39.3001C12.2 39.3001 17.7 41.1001 25.3 37.4001C33 33.7001 33.8 27.7001 33.8 27.7001C33.8 27.7001 30.3 21.0001 23.6 21.1001Z" fill="url(#paint2_linear)"/>
<path d="M17.7 2.30004C19.4 5.20004 16.9 9.80004 12.2 12.5C7.5 15.2 2.3 15 0.599996 12.1C-1.2 9.20004 1.3 4.60004 6 1.90004C10.8 -0.799958 16 -0.599959 17.7 2.30004Z" fill="url(#paint3_linear)"/>
<path opacity="0.5" d="M17.3 4.1001C17.3 4.1001 17.2 4.3001 17.1 4.7001C17 4.8001 16.9 5.0001 16.8 5.3001C16.7 5.5001 16.5 5.8001 16.4 6.1001C16.3 6.2001 16.2 6.4001 16.1 6.5001C16 6.6001 15.9 6.8001 15.8 6.9001C15.7 7.0001 15.6 7.2001 15.4 7.3001C15.3 7.4001 15.1 7.6001 15 7.7001C14.7 8.0001 14.4 8.3001 14 8.6001C13.7 8.9001 13.3 9.1001 13 9.4001C12.6 9.6001 12.3 9.9001 11.9 10.1001C11.5 10.3001 11.2 10.5001 10.8 10.6001C10.4 10.8001 10 10.9001 9.7 11.0001C9.5 11.1001 9.4 11.1001 9.2 11.2001C9 11.2001 8.9 11.3001 8.7 11.3001C8.4 11.4001 8.1 11.4001 7.8 11.5001C7.5 11.5001 7.3 11.5001 7.1 11.5001C6.7 11.5001 6.5 11.5001 6.5 11.5001C6.5 11.5001 6.7 11.4001 7.1 11.3001C7.3 11.2001 7.5 11.2001 7.7 11.1001C8 11.0001 8.2 10.9001 8.5 10.8001C8.8 10.7001 9.1 10.6001 9.4 10.4001C9.7 10.2001 10.1 10.1001 10.4 9.9001C10.7 9.7001 11.1 9.5001 11.5 9.3001C11.8 9.1001 12.2 8.9001 12.5 8.7001C12.8 8.5001 13.2 8.2001 13.5 8.0001C13.8 7.7001 14.1 7.5001 14.4 7.2001C14.5 7.1001 14.7 6.9001 14.8 6.8001C14.9 6.7001 15.1 6.5001 15.2 6.4001C15.6 6.2001 15.8 6.0001 16 5.8001C16.2 5.6001 16.4 5.3001 16.5 5.1001C16.7 4.9001 16.8 4.7001 16.9 4.6001C17.1 4.3001 17.3 4.1001 17.3 4.1001Z" fill="white"/>
<path opacity="0.5" d="M22.1 29.0001C22.2 30.0001 21.7 30.9001 21.1 31.0001C20.4 31.1001 19.8 30.3001 19.7 29.2001C19.6 28.2001 20.1 27.3001 20.7 27.2001C21.4 27.1001 22 27.9001 22.1 29.0001Z" fill="white"/>
<path opacity="0.5" d="M27.1 29.6001C27.2 30.2001 26.9 30.7001 26.5 30.8001C26.1 30.8001 25.7 30.4001 25.7 29.8001C25.6 29.2001 25.9 28.7001 26.3 28.6001C26.7 28.5001 27 29.0001 27.1 29.6001Z" fill="white"/>
<defs>
<radialGradient id="paint0_radial" cx="0" cy="0" r="1" gradientUnits="userSpaceOnUse" gradientTransform="translate(29.678 45.1982) scale(1.3939)">
<stop/>
<stop offset="0.1887" stop-color="#030303"/>
<stop offset="0.322" stop-color="#0C0C0C"/>
<stop offset="0.4383" stop-color="#1C1C1C"/>
<stop offset="0.5449" stop-color="#323232"/>
<stop offset="0.6449" stop-color="#4E4E4E"/>
<stop offset="0.7399" stop-color="#717171"/>
<stop offset="0.8311" stop-color="#9B9B9B"/>
<stop offset="0.9168" stop-color="#CACACA"/>
<stop offset="1" stop-color="white"/>
</radialGradient>
<linearGradient id="paint1_linear" x1="29.672" y1="39.5197" x2="25.8178" y2="42.3105" gradientUnits="userSpaceOnUse">
<stop stop-color="#DED9D6"/>
<stop offset="0.0629958" stop-color="#CFCAC9"/>
<stop offset="0.1833" stop-color="#A8A4A7"/>
<stop offset="0.264" stop-color="#8B878D"/>
<stop offset="0.5225" stop-color="#F3F4F4"/>
<stop offset="0.5842" stop-color="#E5E5E6"/>
<stop offset="0.7027" stop-color="#C0BEC0"/>
<stop offset="0.8647" stop-color="#858085"/>
<stop offset="0.8764" stop-color="#807B80"/>
<stop offset="1" stop-color="#A7A9AC"/>
</linearGradient>
<linearGradient id="paint2_linear" x1="26.0233" y1="16.4994" x2="2.85336" y2="37.6054" gradientUnits="userSpaceOnUse">
<stop offset="0.1845" stop-color="#8CC63F"/>
<stop offset="0.7554" stop-color="#006837"/>
</linearGradient>
<linearGradient id="paint3_linear" x1="4.93087" y1="-1.03693" x2="16.2225" y2="21.0278" gradientUnits="userSpaceOnUse">
<stop offset="0.1845" stop-color="#8CC63F"/>
<stop offset="0.7554" stop-color="#006837"/>
</linearGradient>
</defs>
</svg>
