<svg width="54" height="46" viewBox="0 0 54 46" fill="none" xmlns="http://www.w3.org/2000/svg">
<path d="M43.6223 3.25654C44.0276 2.83738 44.9039 3.01674 45.5938 3.66011C46.1872 4.32935 46.3235 5.22458 45.9182 5.64374C45.5129 6.06291 44.6366 5.88354 43.9466 5.24017C43.2308 4.50021 43.1203 3.70158 43.6223 3.25654Z" fill="url(#paint0_radial)"/>
<path d="M38.7428 11.7071L45.8337 4.94176C45.8337 4.94176 45.4714 3.58944 44.3312 3.58431L36.6159 10.7239L38.7428 11.7071Z" fill="url(#paint1_linear)"/>
<path d="M23.4309 17.1548L12.3471 30.2696L20.7407 36.0961L31.9436 25.7446C38.5294 27.9143 44.0248 22.9222 44.0248 22.9222C44.0248 22.9222 44.1471 17.1955 38.4133 10.8636C32.7054 4.62823 26.6579 5.62715 26.6579 5.62715C26.6579 5.62715 21.3367 10.8831 23.4309 17.1548Z" fill="url(#paint2_linear)"/>
<path d="M7.17233 28.3431C9.50777 25.854 14.5463 26.8853 18.5637 30.6748C22.5552 34.3677 23.9008 39.3906 21.5654 41.8797C19.2299 44.3688 14.0949 43.3633 10.174 39.548C6.18247 35.8551 4.83688 30.8322 7.17233 28.3431Z" fill="url(#paint3_linear)"/>
<path opacity="0.5" d="M8.89205 28.1929C8.89205 28.1929 9.11112 28.2378 9.52337 28.2309C9.74243 28.2757 9.93562 28.2239 10.1806 28.3654C10.3996 28.4102 10.7153 28.4292 11.0568 28.5447C11.1793 28.6155 11.3984 28.6603 11.495 28.6344C11.6174 28.7051 11.8365 28.75 11.959 28.8207C12.0814 28.8914 12.3005 28.9362 12.5196 28.9811C12.642 29.0518 12.887 29.1932 13.0094 29.264C13.4993 29.5468 13.8667 29.759 14.2341 29.9711C14.6016 30.1833 14.8983 30.5179 15.2657 30.7301C15.5624 31.0647 15.9298 31.2768 16.2265 31.6115C16.5232 31.9461 16.794 32.1841 17.0907 32.5187C17.3874 32.8534 17.5616 33.1173 17.7617 33.4778C17.91 33.6451 17.9359 33.7417 18.0843 33.909C18.136 34.1022 18.2585 34.1729 18.3102 34.3661C18.4845 34.63 18.5621 34.9198 18.7363 35.1837C18.8139 35.4734 18.9623 35.6408 19.0141 35.8339C19.1176 36.2203 19.1693 36.4135 19.1693 36.4135C19.1693 36.4135 19.021 36.2462 18.8209 35.8857C18.6725 35.7184 18.6208 35.5252 18.4724 35.3579C18.2982 35.094 18.0274 34.8559 17.8531 34.592C17.6789 34.3281 17.5047 34.0642 17.2339 33.8262C16.9631 33.5882 16.7888 33.3243 16.4921 32.9896C16.2213 32.7516 15.9246 32.417 15.6279 32.0824C15.3571 31.8443 14.9638 31.5356 14.693 31.2976C14.3256 31.0854 14.0289 30.7508 13.7581 30.5128C13.3907 30.3006 13.1199 30.0626 12.7524 29.8504C12.63 29.7797 12.385 29.6383 12.2626 29.5676C12.1401 29.4968 11.8952 29.3554 11.7727 29.2847C11.4311 29.1691 11.1603 28.9311 10.8188 28.8156C10.5739 28.6741 10.2323 28.5586 10.0133 28.5137C9.76831 28.3723 9.54925 28.3274 9.42678 28.2567C9.13699 28.3344 8.89205 28.1929 8.89205 28.1929Z" fill="white"/>
<path opacity="0.5" d="M31.2758 16.2955C32.2159 15.9402 33.1887 16.0936 33.4665 16.7439C33.7442 17.3942 33.1267 18.1808 32.1866 18.5361C31.2466 18.8915 30.2737 18.738 29.996 18.0877C29.7441 17.5341 30.3616 16.7475 31.2758 16.2955Z" fill="white"/>
<path opacity="0.5" d="M30.4908 11.4331C31.0445 11.1813 31.7017 11.3158 31.8052 11.7022C32.0053 12.0627 31.6258 12.5784 31.0722 12.8303C30.5185 13.0821 29.8613 12.9476 29.7578 12.5612C29.5577 12.2007 29.9371 11.685 30.4908 11.4331Z" fill="white"/>
<defs>
<radialGradient id="paint0_radial" cx="0" cy="0" r="1" gradientUnits="userSpaceOnUse" gradientTransform="translate(44.6847 4.41396) rotate(-106.859) scale(1.39394)">
<stop/>
<stop offset="0.1887" stop-color="#030303"/>
<stop offset="0.322" stop-color="#0C0C0C"/>
<stop offset="0.4383" stop-color="#1C1C1C"/>
<stop offset="0.5449" stop-color="#323232"/>
<stop offset="0.6449" stop-color="#4E4E4E"/>
<stop offset="0.7399" stop-color="#717171"/>
<stop offset="0.8311" stop-color="#9B9B9B"/>
<stop offset="0.9168" stop-color="#CACACA"/>
<stop offset="1" stop-color="white"/>
</radialGradient>
<linearGradient id="paint1_linear" x1="39.2509" y1="6.06594" x2="43.0406" y2="8.94593" gradientUnits="userSpaceOnUse">
<stop stop-color="#DED9D6"/>
<stop offset="0.0629958" stop-color="#CFCAC9"/>
<stop offset="0.1833" stop-color="#A8A4A7"/>
<stop offset="0.264" stop-color="#8B878D"/>
<stop offset="0.5225" stop-color="#F3F4F4"/>
<stop offset="0.5842" stop-color="#E5E5E6"/>
<stop offset="0.7027" stop-color="#C0BEC0"/>
<stop offset="0.8647" stop-color="#858085"/>
<stop offset="0.8764" stop-color="#807B80"/>
<stop offset="1" stop-color="#A7A9AC"/>
</linearGradient>
<linearGradient id="paint2_linear" x1="18.2791" y1="16.2353" x2="45.1988" y2="32.2886" gradientUnits="userSpaceOnUse">
<stop offset="0.1845" stop-color="#29ABE2"/>
<stop offset="0.7554" stop-color="#1B1464"/>
</linearGradient>
<linearGradient id="paint3_linear" x1="7.61456" y1="41.5085" x2="25.4568" y2="24.3017" gradientUnits="userSpaceOnUse">
<stop offset="0.1845" stop-color="#29ABE2"/>
<stop offset="0.7554" stop-color="#1B1464"/>
</linearGradient>
</defs>
</svg>
